<svg width="100%" height="100%" id="svg" viewBox="0 0 1440 590" xmlns="http://www.w3.org/2000/svg" class="transition duration-300 ease-in-out delay-150"><path d="M 0,600 L 0,150 C 95.34928229665073,143.8755980861244 190.69856459330146,137.75119617224883 296,149 C 401.30143540669854,160.24880382775117 516.555023923445,188.87081339712918 608,192 C 699.444976076555,195.12918660287082 767.0813397129187,172.76555023923444 868,149 C 968.9186602870813,125.23444976076556 1103.1196172248804,100.06698564593302 1204,100 C 1304.8803827751196,99.93301435406698 1372.44019138756,124.96650717703349 1440,150 L 1440,600 L 0,600 Z" stroke="none" stroke-width="0" fill="#1e2f5e" fill-opacity="0.53" class="transition-all duration-300 ease-in-out delay-150 path-0"></path><path d="M 0,600 L 0,350 C 66.82296650717703,395.4545454545455 133.64593301435406,440.90909090909093 244,418 C 354.35406698564594,395.09090909090907 508.23923444976083,303.81818181818187 610,279 C 711.7607655502392,254.18181818181816 761.3971291866028,295.81818181818187 832,313 C 902.6028708133972,330.18181818181813 994.1722488038279,322.9090909090909 1099,325 C 1203.8277511961721,327.0909090909091 1321.9138755980862,338.54545454545456 1440,350 L 1440,600 L 0,600 Z" stroke="none" stroke-width="0" fill="#1e2f5e" fill-opacity="1" class="transition-all duration-300 ease-in-out delay-150 path-1"></path></svg>